<svg width="66" height="62" viewBox="0 0 66 62" fill="none" xmlns="http://www.w3.org/2000/svg">
<path d="M64.9355 0H1.06452C0.782189 0 0.511425 0.112623 0.31179 0.313093C0.112154 0.513563 0 0.785458 0 1.06897V50.2414C0 50.5249 0.112154 50.7968 0.31179 50.9973C0.511425 51.1977 0.782189 51.3103 1.06452 51.3103H41.019C41.172 51.5411 41.3384 51.767 41.5161 51.9898V60.931C41.516 61.1005 41.556 61.2675 41.6328 61.4184C41.7096 61.5692 41.8211 61.6996 41.958 61.7986C42.0949 61.8976 42.2534 61.9625 42.4202 61.9879C42.587 62.0133 42.7575 61.9985 42.9175 61.9446L48.9677 59.9195L55.018 61.9446C55.1265 61.9815 55.2403 62.0002 55.3548 62C55.4947 62.0001 55.6332 61.9726 55.7624 61.9189C55.8916 61.8652 56.009 61.7865 56.1079 61.6872C56.2068 61.5879 56.2852 61.47 56.3386 61.3403C56.3921 61.2105 56.4195 61.0715 56.4194 60.931V51.9903C56.598 51.7664 56.7642 51.5407 56.9167 51.3103H64.9355C65.2178 51.3103 65.4886 51.1977 65.6882 50.9973C65.8878 50.7968 66 50.5249 66 50.2414V1.06897C66 0.785458 65.8878 0.513563 65.6882 0.313093C65.4886 0.112623 65.2178 0 64.9355 0ZM41.4017 40.0618C41.2932 40.2017 41.1912 40.3468 41.0905 40.493C41.0469 40.5561 41.001 40.6172 40.9589 40.6814C40.8477 40.8511 40.7444 41.0264 40.6437 41.2036C40.6178 41.2491 40.5893 41.2925 40.5641 41.3385C40.3148 41.7938 40.1027 42.2688 39.93 42.7586H13.7504C13.5269 41.4463 12.9034 40.2359 11.9659 39.2944C11.0284 38.353 9.82303 37.7269 8.51613 37.5025V13.8078C9.82303 13.5835 11.0284 12.9574 11.9659 12.0159C12.9034 11.0745 13.5269 9.86409 13.7504 8.55172H52.2496C52.4731 9.86409 53.0966 11.0745 54.0341 12.0159C54.9716 12.9574 56.177 13.5835 57.4839 13.8078V37.5025C56.5966 37.6516 55.7511 37.9886 55.0035 38.4911L54.9993 38.4879L54.9662 38.4633C54.7452 38.2851 54.5177 38.1182 54.2836 37.9626C54.2072 37.9114 54.1276 37.8664 54.0494 37.8175C53.8781 37.7098 53.7058 37.6045 53.5288 37.5082C53.433 37.4561 53.3356 37.4093 53.2385 37.3607C53.0734 37.2779 52.9072 37.1983 52.7382 37.1255C52.6334 37.0804 52.5277 37.0386 52.4214 36.9972C52.2537 36.9322 52.0843 36.8719 51.9134 36.8165C51.804 36.781 51.6946 36.7462 51.584 36.7147C51.4085 36.6649 51.2312 36.6222 51.0528 36.5824C50.9444 36.5582 50.8369 36.5322 50.7275 36.5118C50.5317 36.4752 50.3336 36.4486 50.1352 36.4244C50.0416 36.4129 49.9491 36.397 49.8551 36.3882C49.5614 36.361 49.2658 36.3448 48.9677 36.3448C48.7028 36.3448 48.4402 36.3568 48.18 36.3782C48.0932 36.3852 48.0086 36.3996 47.9225 36.4088C47.7498 36.4278 47.5771 36.4463 47.4069 36.4744C47.3052 36.4912 47.2057 36.5147 47.1049 36.5347C46.9534 36.5648 46.8018 36.5941 46.6526 36.6309C46.547 36.6572 46.4438 36.6895 46.3396 36.7192C46.198 36.7597 46.0566 36.8 45.9176 36.8468C45.8131 36.8821 45.7108 36.9216 45.6079 36.9607C45.4729 37.0114 45.3385 37.0626 45.2063 37.1193C45.1047 37.1628 45.0053 37.2098 44.9055 37.2569C44.7758 37.3179 44.647 37.3802 44.5202 37.4469C44.4235 37.4978 44.3286 37.5513 44.2337 37.6055C44.1085 37.6769 43.985 37.7503 43.8633 37.8272C43.7722 37.8848 43.6823 37.944 43.5933 38.0046C43.4727 38.0866 43.3542 38.1713 43.2379 38.2587C43.1535 38.322 43.0698 38.386 42.9875 38.452C42.8709 38.5454 42.7576 38.6421 42.6455 38.7406C42.5692 38.8079 42.4929 38.8751 42.4187 38.9448C42.3059 39.0507 42.1971 39.1608 42.0894 39.2723C42.0222 39.3419 41.9542 39.4105 41.889 39.4822C41.7792 39.6029 41.6744 39.7281 41.5706 39.8549C41.514 39.9244 41.4562 39.9915 41.4017 40.0618ZM54.2903 59.4476L49.3046 57.78C49.086 57.7062 48.8495 57.7062 48.6309 57.78L43.6452 59.4476V53.965C43.6984 54.0005 43.7571 54.0249 43.8107 54.0593C44.0984 54.2444 44.3959 54.4137 44.7017 54.5667C44.7782 54.605 44.8515 54.6485 44.9291 54.6843C45.3063 54.8601 45.6945 55.0109 46.0913 55.1359C46.185 55.1655 46.2807 55.1868 46.3752 55.2137C46.6949 55.3039 47.0189 55.3774 47.3462 55.4339C47.4633 55.4541 47.5792 55.475 47.6975 55.4909C48.5397 55.6174 49.3961 55.6174 50.2383 55.4909C50.3566 55.4749 50.4725 55.454 50.5896 55.4338C50.9161 55.3774 51.2395 55.304 51.5584 55.214C51.6542 55.1871 51.75 55.1655 51.8447 55.1356C52.2408 55.0108 52.6284 54.8602 53.005 54.6847C53.0842 54.6479 53.1592 54.6033 53.2372 54.5643C53.5408 54.4122 53.8362 54.244 54.1219 54.0604C54.1763 54.0254 54.2364 54.0007 54.2901 53.9642L54.2903 59.4476ZM55.4068 49.7152C55.1643 50.1432 54.879 50.5451 54.5552 50.9147C53.857 51.7119 52.9977 52.3505 52.0345 52.7881C51.0712 53.2256 50.0262 53.452 48.969 53.4522C47.9118 53.4524 46.8667 53.2264 45.9033 52.7892C44.9399 52.352 44.0804 51.7137 43.3819 50.9168C42.19 49.5437 41.528 47.787 41.5161 45.9655C41.5173 45.3347 41.5955 44.7065 41.749 44.0948C42.1621 42.4879 43.0954 41.0645 44.4022 40.0485C45.709 39.0326 47.3151 38.4818 48.9677 38.4828C49.2134 38.4828 49.4574 38.4947 49.6995 38.5185C51.1515 38.6614 52.5297 39.2295 53.6629 40.1522C53.8518 40.3055 54.0343 40.4687 54.2103 40.6415C54.9123 41.3371 55.4692 42.1661 55.8485 43.0802C56.2278 43.9944 56.4219 44.9752 56.4194 45.9655C56.4248 47.2843 56.075 48.5799 55.4068 49.7152ZM63.871 49.1724H57.9985C58.0711 48.9671 58.1315 48.7574 58.1901 48.5474C58.2007 48.5104 58.2139 48.4746 58.2238 48.4374C58.3168 48.0801 58.3892 47.7177 58.4406 47.3521C58.4533 47.2646 58.4641 47.1774 58.4744 47.0895C58.6306 45.8498 58.5396 44.5913 58.2068 43.3872C57.874 42.1832 57.306 41.0576 56.5359 40.0761C57.1528 39.7357 57.8445 39.5554 58.5484 39.5517C58.8307 39.5517 59.1015 39.4391 59.3011 39.2386C59.5008 39.0382 59.6129 38.7663 59.6129 38.4828V12.8276C59.6129 12.5441 59.5008 12.2722 59.3011 12.0717C59.1015 11.8712 58.8307 11.7586 58.5484 11.7586C57.4194 11.7575 56.337 11.3067 55.5387 10.505C54.7404 9.70339 54.2914 8.61645 54.2903 7.48276C54.2903 7.19925 54.1782 6.92736 53.9785 6.72689C53.7789 6.52642 53.5081 6.41379 53.2258 6.41379H12.7742C12.4919 6.41379 12.2211 6.52642 12.0215 6.72689C11.8218 6.92736 11.7097 7.19925 11.7097 7.48276C11.7086 8.61645 11.2596 9.70339 10.4613 10.505C9.663 11.3067 8.58059 11.7575 7.45161 11.7586C7.16929 11.7586 6.89852 11.8712 6.69889 12.0717C6.49925 12.2722 6.3871 12.5441 6.3871 12.8276V38.4828C6.3871 38.7663 6.49925 39.0382 6.69889 39.2386C6.89852 39.4391 7.16929 39.5517 7.45161 39.5517C8.58059 39.5528 9.663 40.0037 10.4613 40.8053C11.2596 41.607 11.7086 42.6939 11.7097 43.8276C11.7097 44.1111 11.8218 44.383 12.0215 44.5835C12.2211 44.7839 12.4919 44.8966 12.7742 44.8966H39.4536C39.4119 45.2514 39.3897 45.6082 39.3871 45.9655C39.3898 46.3405 39.4144 46.7151 39.4609 47.0872C39.4715 47.1768 39.4822 47.2655 39.4953 47.3544C39.5462 47.7168 39.6178 48.076 39.7096 48.4302C39.7217 48.4758 39.7382 48.5196 39.7508 48.5649C39.8081 48.7689 39.8665 48.9726 39.937 49.1723H2.12903V2.13793H63.871V49.1724Z" fill="black"/>
<path d="M24.4839 20.3103H41.5161C41.7985 20.3103 42.0692 20.1977 42.2689 19.9972C42.4685 19.7968 42.5806 19.5249 42.5806 19.2414V12.8276C42.5806 12.5441 42.4685 12.2722 42.2689 12.0717C42.0692 11.8712 41.7985 11.7586 41.5161 11.7586H24.4839C24.2015 11.7586 23.9308 11.8712 23.7311 12.0717C23.5315 12.2722 23.4194 12.5441 23.4194 12.8276V19.2414C23.4194 19.5249 23.5315 19.7968 23.7311 19.9972C23.9308 20.1977 24.2015 20.3103 24.4839 20.3103ZM25.5484 13.8965H40.4516V18.1724H25.5484V13.8965Z" fill="black"/>
<path d="M22.3548 26.7241H43.6452C43.9275 26.7241 44.1983 26.6115 44.3979 26.4111C44.5975 26.2106 44.7097 25.9387 44.7097 25.6552C44.7097 25.3717 44.5975 25.0998 44.3979 24.8993C44.1983 24.6988 43.9275 24.5862 43.6452 24.5862H22.3548C22.0725 24.5862 21.8018 24.6988 21.6021 24.8993C21.4025 25.0998 21.2903 25.3717 21.2903 25.6552C21.2903 25.9387 21.4025 26.2106 21.6021 26.4111C21.8018 26.6115 22.0725 26.7241 22.3548 26.7241Z" fill="black"/>
<path d="M47.9032 32.069C47.9032 31.7855 47.7911 31.5136 47.5914 31.3131C47.3918 31.1126 47.121 31 46.8387 31H19.1613C18.879 31 18.6082 31.1126 18.4086 31.3131C18.2089 31.5136 18.0968 31.7855 18.0968 32.069C18.0968 32.3525 18.2089 32.6244 18.4086 32.8248C18.6082 33.0253 18.879 33.1379 19.1613 33.1379H46.8387C47.121 33.1379 47.3918 33.0253 47.5914 32.8248C47.7911 32.6244 47.9032 32.3525 47.9032 32.069Z" fill="black"/>
</svg>
