<svg width="64" height="64" viewBox="0 0 64 64" fill="none" xmlns="http://www.w3.org/2000/svg">
<g clip-path="url(#clip0_125_65)">
<path d="M63.383 0.076C63.259 0.024 63.129 0.009 63 0.009V0H50H38H26C25.734 0 25.48 0.105 25.293 0.293L13.294 12.292C13.113 12.473 13 12.723 13 13V38C13 38.553 13.447 39 14 39H51C51.277 39 51.527 38.887 51.708 38.706L63.707 26.707C63.895 26.52 64 26.266 64 26V1C64 0.596 63.757 0.23 63.383 0.076ZM50.586 12H40.414L50.414 2H60.586L50.586 12ZM47.586 2L37.293 12.293C37.105 12.48 37 12.734 37 13V22.132L35.555 21.168C35.219 20.943 34.782 20.943 34.446 21.168L32 22.798L29.555 21.168C29.387 21.056 29.193 21 29 21C28.807 21 28.613 21.056 28.445 21.168L27 22.132V13.414L38.414 2H47.586ZM26.414 2H35.586L25.586 12H16.414L26.414 2ZM50 37H15V14H25V24C25 24.369 25.203 24.708 25.528 24.882C25.852 25.056 26.248 25.036 26.554 24.832L29 23.202L31.445 24.832C31.781 25.057 32.218 25.057 32.554 24.832L35 23.202L37.445 24.832C37.612 24.943 37.806 25 38 25C38.162 25 38.324 24.961 38.472 24.882C38.797 24.708 39 24.369 39 24V14H50V37ZM62 25.586L52 35.586V13.414L62 3.414V25.586Z" fill="black"/>
<path d="M19 59C19.553 59 20 58.553 20 58H22.764L33.455 63.346C33.917 63.577 34.418 63.693 34.917 63.693C35.486 63.693 36.054 63.544 36.563 63.247L58.379 50.52C59.379 49.937 60 48.856 60 47.698C60 46.731 59.575 45.819 58.835 45.196C58.096 44.574 57.122 44.312 56.172 44.477L36.34 47.926L30.707 42.293C30.52 42.105 30.266 42 30 42H20C20 41.447 19.553 41 19 41H15H0V43H14V57H0V59H15H19ZM29.586 44L37.465 51.879C37.805 52.219 38 52.69 38 53.172C38 54.18 37.18 55 36.172 55C35.691 55 35.219 54.805 34.879 54.465L29.707 49.293L28.293 50.707L33.465 55.879C34.188 56.602 35.149 57 36.172 57C38.282 57 40 55.282 40 53.172C40 52.15 39.602 51.188 38.879 50.465L38.069 49.655L56.513 46.447C56.886 46.38 57.26 46.484 57.547 46.726C57.835 46.968 58 47.322 58 47.697C58 48.146 57.759 48.566 57.371 48.792L35.556 61.519C35.186 61.735 34.735 61.749 34.35 61.557L23.448 56.106C23.309 56.036 23.155 56 23 56H20V44H29.586ZM18 57H16V43H18V57Z" fill="black"/>
<path d="M9 9C9 9.553 9.447 10 10 10C10.553 10 11 9.553 11 9C11 7.346 12.346 6 14 6C14.553 6 15 5.553 15 5C15 4.447 14.553 4 14 4C12.346 4 11 2.654 11 1C11 0.447 10.553 0 10 0C9.447 0 9 0.447 9 1C9 2.654 7.654 4 6 4C5.447 4 5 4.447 5 5C5 5.553 5.447 6 6 6C7.654 6 9 7.346 9 9ZM10 3.997C10.285 4.377 10.623 4.715 11.003 5C10.623 5.285 10.285 5.623 10 6.003C9.715 5.623 9.377 5.285 8.997 5C9.377 4.715 9.715 4.377 10 3.997Z" fill="black"/>
</g>
<defs>
<clipPath id="clip0_125_65">
<rect width="64" height="64" fill="white"/>
</clipPath>
</defs>
</svg>
