<svg width="217" height="59" viewBox="0 0 217 59" fill="none" xmlns="http://www.w3.org/2000/svg">
<g filter="url(#filter0_d_6_11)">
<path d="M4.03221 1.08162C3.86337 3.34202 4.34173 4.41198 5.86123 5.13474C6.29035 5.34023 6.47325 5.47486 6.61395 5.68035C6.8672 6.06299 7.74653 7.03375 8.25303 7.48725C9.95543 9.03197 11.2358 9.7193 16.1882 11.7246C17.7921 12.3765 19.3327 13.0922 20.5075 13.7228L21.4361 14.2259L21.1688 14.559C19.4453 16.6493 18.6363 19.9938 19.1639 22.7927C19.3116 23.5864 19.4945 24.0753 19.9588 24.9114C20.6834 26.2152 20.9014 27.0726 20.9014 28.5606C20.9014 29.5597 20.803 30.2542 20.5286 31.3241C20.1136 32.9184 19.5648 34.0309 18.383 35.7032C17.7851 36.5535 17.8554 37.0779 18.8754 39.2249C19.7548 41.0743 19.9447 41.6553 20.0432 42.8103C20.1487 44.1354 20.1487 44.1354 20.5286 44.6952C20.8592 45.1841 20.8803 45.2337 20.8803 45.6801C20.8803 46.0911 20.9155 46.2115 21.2039 46.7784C21.5557 47.4728 21.5557 47.4657 21.2954 48.316C21.1336 48.8546 21.1336 48.8758 21.2532 49.2089C21.3446 49.471 21.3657 49.6765 21.3306 50.0804C21.2602 50.8811 21.0984 50.8386 24.0671 50.7961C25.5373 50.7748 26.5785 50.7252 26.6347 50.6827C26.7895 50.5623 26.7262 50.4135 26.1282 49.471C25.8046 48.9609 25.5162 48.4649 25.4881 48.3656C25.4037 48.0964 25.0379 47.5508 24.4891 46.8918C24.0671 46.3816 24.0108 46.2824 24.0319 46.0698C24.06 45.8218 23.8771 45.3896 23.5676 44.9786C23.4339 44.8015 23.3917 44.6527 23.3777 44.2984C23.3636 43.9015 23.3003 43.7173 22.829 42.7111C22.5405 42.0876 22.2099 41.3152 22.1044 40.9893C21.9144 40.4295 21.9074 40.3232 21.9074 39.154C21.9074 38.0699 21.9285 37.8644 22.0551 37.5172C22.3787 36.6385 22.7094 36.3055 23.9053 35.6394C24.8761 35.1009 25.3474 34.782 26.1142 34.1301C26.9372 33.4357 28.1261 32.5429 28.1753 32.5925C28.1964 32.6138 28.2597 32.8476 28.316 33.1098C28.4638 33.8396 28.4427 35.0796 28.2598 35.9654C28.1683 36.3905 28.098 36.9857 28.098 37.3471C28.0909 38.2329 28.2738 38.6013 29.0898 39.3453C29.9692 40.1389 30.3139 40.5216 30.7711 41.1522C31.545 42.2364 32.2344 43.6323 32.4806 44.6314C32.6564 45.34 32.8393 45.673 33.2966 46.0769C33.7609 46.495 33.9649 46.8634 33.9649 47.2886C33.9649 47.7067 34.0493 47.8342 34.4925 48.0893C34.7035 48.2098 34.9005 48.3373 34.9216 48.3798C34.9779 48.4649 35.0131 48.9467 35.0412 49.8324C35.0553 50.2434 35.0975 50.5268 35.1467 50.5764C35.2171 50.6473 35.801 50.6686 37.6089 50.6686C39.9233 50.6686 39.9796 50.6686 40.0007 50.5268C40.0077 50.4418 39.7545 49.9741 39.3746 49.3931C38.9525 48.7483 38.7274 48.3373 38.7344 48.231C38.7485 48.0184 38.5797 47.8271 37.9606 47.3595C37.6792 47.154 37.3416 46.8138 37.1305 46.5233C36.9124 46.2115 36.6451 45.9423 36.4059 45.7935C36.0612 45.5667 36.012 45.503 35.7658 44.9007C35.5266 44.3125 35.4211 44.1637 34.8091 43.5047C33.6483 42.2718 33.1207 41.3081 32.6846 39.65C32.4946 38.906 32.4313 37.1841 32.5791 36.4968C32.8604 35.193 33.2825 34.534 34.7246 33.1523L35.7728 32.1461L36.012 32.3232C36.5537 32.72 37.018 33.2657 37.5315 34.1018C38.9595 36.4047 40.3383 37.5597 40.9222 36.929C41.0489 36.7944 41.0981 36.6244 41.1473 36.1638C41.2388 35.3843 41.3162 35.1009 41.6116 34.5411C41.9704 33.8467 42.0759 33.7688 42.5472 33.8396C42.7583 33.875 43.5884 33.953 44.3903 34.0097C45.8395 34.123 46.7329 34.2577 47.1761 34.4419C47.359 34.5269 47.4012 34.5765 47.4012 34.7679C47.4012 35.4198 47.9991 37.2125 48.6252 38.41L48.8433 38.8351L48.8222 39.9264C48.8081 40.5499 48.7659 41.0814 48.7237 41.1664C48.5971 41.4002 47.1691 42.7678 47.0424 42.7678C46.9862 42.7678 46.754 42.7324 46.5359 42.6899C46.0435 42.5907 45.8747 42.6332 45.5018 42.945C45.1571 43.2355 44.9672 43.2496 44.4818 43.03C44.1371 42.867 44.1301 42.8599 44.1301 42.534C44.1301 42.3143 44.0808 42.1584 43.9894 42.0521C43.8276 41.875 43.4688 41.7049 43.2507 41.7049C43.1663 41.7049 43.0045 41.6128 42.8919 41.4994C42.3362 40.9326 41.0489 41.2018 40.0429 42.0947C39.1917 42.8387 39.2691 43.5118 40.3032 44.3054C41.2247 45.0069 41.6749 45.2479 42.0759 45.2479C42.1463 45.2479 42.3854 45.4179 42.6035 45.6305C43.2578 46.2541 43.314 46.2682 44.6014 46.2115C45.6425 46.1619 45.7199 46.169 46.0013 46.3178C46.2405 46.4383 46.3812 46.4595 46.6696 46.4312C47.2535 46.3674 47.5841 46.1478 48.5338 45.177C49.3217 44.3763 50.6583 43.2709 51.0874 43.0654C51.1648 43.03 51.4251 42.9591 51.6572 42.9095C52.0019 42.8387 52.1356 42.7678 52.3677 42.5269C52.8039 42.0947 52.8461 41.8679 52.825 40.0397C52.8179 38.7643 52.832 38.4029 52.9305 38.0557C52.9938 37.8219 53.0923 37.4676 53.1486 37.2763C53.1978 37.0779 53.2611 36.674 53.2893 36.3693C53.3104 36.0717 53.3596 35.8237 53.3948 35.8237C53.4933 35.8237 53.838 36.0717 54.5063 36.6385C55.9484 37.8644 56.6378 38.1832 58.0025 38.2754C59.3743 38.3675 60.4154 37.9282 61.8013 36.674L62.3148 36.2063L62.6876 36.5677C62.8846 36.759 63.5248 37.2054 64.0946 37.5597C65.7337 38.5588 66.0713 38.9273 66.2964 39.9335C66.5004 40.8688 66.6622 41.0814 67.7104 41.8325C68.4772 42.3781 68.8922 42.7962 69.3425 43.4622C69.7716 44.107 69.9615 44.5534 70.1233 45.34C70.2007 45.7226 70.2921 46.0982 70.3344 46.169C70.4188 46.3249 70.6791 46.4737 71.0027 46.5517C71.3192 46.6296 71.4529 46.7855 71.5725 47.2248C71.7202 47.7633 71.9523 48.0964 72.3252 48.3302C72.6206 48.5215 72.6347 48.5428 72.6066 48.805C72.5714 49.0388 72.5995 49.0955 72.7965 49.2868C73.0216 49.4994 73.0216 49.5065 72.9724 49.96C72.9302 50.4064 72.9302 50.4276 73.1412 50.6331L73.3522 50.8457L75.6948 50.8315L78.0374 50.8103L78.0585 50.6473C78.0796 50.5339 77.9459 50.3284 77.5801 49.9033C76.9681 49.2018 76.3842 48.3869 76.3842 48.231C76.3842 48.1672 76.138 47.9688 75.8214 47.7775C75.5119 47.5862 75.2094 47.3665 75.1531 47.2815C75.0898 47.1965 74.9139 46.9201 74.7451 46.665C74.4919 46.2611 74.3863 46.1761 73.9783 45.9706C73.5422 45.758 73.5 45.7155 73.4226 45.4392C73.2819 44.8936 72.9302 44.3409 72.3955 43.8165C71.3122 42.7466 70.9886 42.1655 70.475 40.3799C70.0952 39.0548 69.849 38.4809 69.3847 37.8786C68.8711 37.2196 68.6249 36.6244 68.2239 35.0796C67.9285 33.9317 67.7597 33.3932 67.626 33.1239C67.5627 33.0035 67.5205 32.8901 67.5416 32.8759C67.5556 32.8547 67.7878 32.8263 68.0481 32.798L68.5194 32.7555L69.2369 33.4924C69.7294 34.0026 70.0178 34.3781 70.1796 34.6899C70.4328 35.2072 70.6157 35.8024 70.6157 36.1779C70.6228 36.7306 71.1082 37.3542 71.6709 37.5313C71.8046 37.5739 72.1986 37.7227 72.5433 37.8573C74.0416 38.4383 75.2024 38.41 75.941 37.7723C76.3561 37.418 76.539 36.9787 76.5741 36.2488C76.6164 35.4552 76.954 34.4277 77.6153 33.1027L78.1077 32.1107L78.6705 31.7918C79.374 31.395 80.0493 30.7289 80.2955 30.1975C80.394 29.9778 80.5065 29.5881 80.5417 29.3259C80.5839 29.0566 80.7317 28.511 80.8724 28.1001C81.0623 27.5403 81.1326 27.2001 81.1537 26.7325C81.1678 26.3924 81.21 26.116 81.2452 26.116C81.4492 26.116 82.5959 26.612 84.2631 27.4269C86.3805 28.4614 87.0066 28.7307 87.8297 28.9504C88.5121 29.1346 89.6939 29.2338 90.3481 29.1558C92.0998 28.9504 93.3941 27.9442 93.8866 26.3924C93.971 26.1089 94.0062 25.7688 93.9991 25.0886C93.9991 24.2666 93.978 24.0824 93.781 23.4234C93.4504 22.2826 93.3871 21.9424 93.4223 21.2976C93.4434 20.7874 93.4856 20.6103 93.7037 20.1284C93.9217 19.6537 93.9499 19.5474 93.8725 19.4695C93.7388 19.3348 93.57 19.434 93.1761 19.8804C92.4515 20.6953 92.3178 21.2551 92.3882 23.2604C92.4585 25.1594 92.353 25.5987 91.6777 26.3286C91.0938 26.9592 90.3974 27.1364 89.4617 26.9025C88.6316 26.697 87.7242 26.2294 85.8037 25.0319C84.8892 24.465 83.834 23.8414 83.4471 23.6501C82.8139 23.3313 81.7658 22.9274 81.5618 22.9274C81.5195 22.9274 81.3155 22.7502 81.1045 22.5376C80.387 21.7936 79.1418 21.1063 77.7208 20.6528C77.3128 20.5253 76.9751 20.419 76.9611 20.4119C76.9259 20.3835 77.2354 18.9593 77.362 18.5837C77.5942 17.9035 77.9389 17.3366 78.4383 16.7981C78.6986 16.5147 78.9167 16.2525 78.9167 16.21C78.9167 16.0753 78.7057 16.0612 78.4102 16.1674C77.2917 16.5643 76.2154 17.9389 75.8144 19.4765C75.6596 20.093 75.6526 20.1072 75.4767 20.0576C75.3782 20.0292 74.9843 19.9938 74.5974 19.9796L73.908 19.9584L73.4015 19.5545C73.1271 19.3277 72.2197 18.4633 71.3896 17.62C69.7786 15.9903 68.9626 15.2675 67.6541 14.318C65.7477 12.9292 62.7439 11.1648 60.0566 9.86102C58.8115 9.25163 58.0447 8.9682 57.1021 8.76979C55.2027 8.35173 53.7746 8.52887 50.9537 9.50673C48.4494 10.3783 47.366 10.7326 46.4163 10.9806C43.4266 11.7742 40.3313 11.9443 36.3215 11.5475C34.7035 11.3845 33.993 11.3491 32.3469 11.3491C30.2084 11.3491 29.533 11.3987 27.3874 11.7317C25.27 12.0576 24.9112 12.1002 23.9053 12.1002C22.3928 12.1002 21.0914 11.8167 19.2975 11.0869C17.7499 10.4562 17.5107 10.3783 15.4355 9.78307C13.4306 9.2162 12.3894 8.84065 11.3272 8.30213C9.89212 7.57228 8.73843 6.67238 7.64805 5.41109L7.29631 5.00719L7.28224 4.44741C7.26817 3.96557 7.24003 3.8522 7.0712 3.60419C6.95865 3.44122 6.67726 3.15778 6.44511 2.97355C6.21297 2.78223 5.94565 2.52005 5.8542 2.38542C5.70647 2.16576 5.68536 2.15867 5.65019 2.27913C5.5095 2.71846 5.51653 2.71846 5.13666 2.17993C4.93968 1.8965 4.63719 1.37923 4.45429 1.03202C4.27842 0.677728 4.11662 0.394291 4.10255 0.394291C4.08848 0.394291 4.06035 0.706072 4.03221 1.08162Z" fill="url(#paint0_linear_6_11)" fill-opacity="0.79" shape-rendering="crispEdges"/>
</g>
<g filter="url(#filter1_d_6_11)">
<path d="M104.224 27.568C105.397 27.568 106.443 27.856 107.36 28.432C108.277 29.008 108.981 29.8187 109.472 30.864C109.984 31.888 110.24 33.0613 110.24 34.384C110.24 36.368 109.707 37.9573 108.64 39.152C107.573 40.3467 106.176 40.944 104.448 40.944H102.048C101.941 40.944 101.888 40.9973 101.888 41.104V49.616C101.888 49.7227 101.845 49.8187 101.76 49.904C101.696 49.968 101.611 50 101.504 50H97.76C97.6533 50 97.5573 49.968 97.472 49.904C97.408 49.8187 97.376 49.7227 97.376 49.616V27.952C97.376 27.8453 97.408 27.76 97.472 27.696C97.5573 27.6107 97.6533 27.568 97.76 27.568H104.224ZM103.456 37.424C104.139 37.424 104.683 37.168 105.088 36.656C105.515 36.1227 105.728 35.3973 105.728 34.48C105.728 33.5413 105.515 32.8053 105.088 32.272C104.683 31.7387 104.139 31.472 103.456 31.472H102.048C101.941 31.472 101.888 31.5253 101.888 31.632V37.264C101.888 37.3707 101.941 37.424 102.048 37.424H103.456ZM117.427 50.256C115.464 50.256 113.896 49.68 112.723 48.528C111.55 47.376 110.963 45.84 110.963 43.92V33.68C110.963 31.76 111.55 30.224 112.723 29.072C113.896 27.92 115.464 27.344 117.427 27.344C119.39 27.344 120.958 27.92 122.131 29.072C123.326 30.224 123.923 31.76 123.923 33.68V43.92C123.923 45.84 123.326 47.376 122.131 48.528C120.958 49.68 119.39 50.256 117.427 50.256ZM117.427 46.384C118.024 46.384 118.504 46.1813 118.867 45.776C119.23 45.3493 119.411 44.7947 119.411 44.112V33.488C119.411 32.8053 119.23 32.2613 118.867 31.856C118.504 31.4293 118.024 31.216 117.427 31.216C116.83 31.216 116.35 31.4293 115.987 31.856C115.646 32.2613 115.475 32.8053 115.475 33.488V44.112C115.475 44.7947 115.646 45.3493 115.987 45.776C116.35 46.1813 116.83 46.384 117.427 46.384ZM129.377 50C129.142 50 129.003 49.8827 128.961 49.648L124.641 28.016L124.609 27.888C124.609 27.696 124.726 27.6 124.961 27.6H128.865C129.121 27.6 129.259 27.7173 129.281 27.952L131.105 39.472C131.126 39.5573 131.158 39.6 131.201 39.6C131.243 39.6 131.275 39.5573 131.297 39.472L133.025 27.952C133.046 27.7173 133.185 27.6 133.441 27.6H136.673C136.929 27.6 137.067 27.7173 137.089 27.952L138.977 39.472C138.998 39.5573 139.03 39.6 139.073 39.6C139.115 39.6 139.147 39.5573 139.169 39.472L140.801 27.952C140.822 27.7173 140.961 27.6 141.217 27.6H144.993C145.27 27.6 145.387 27.7387 145.345 28.016L141.281 49.648C141.259 49.8827 141.121 50 140.865 50H137.409C137.153 50 137.014 49.8827 136.993 49.648L135.105 37.808C135.083 37.7227 135.051 37.68 135.009 37.68C134.966 37.68 134.934 37.7227 134.913 37.808L133.217 49.648C133.195 49.8827 133.057 50 132.801 50H129.377ZM158.183 31.088C158.183 31.1947 158.141 31.2907 158.055 31.376C157.991 31.44 157.906 31.472 157.799 31.472H151.111C151.005 31.472 150.951 31.5253 150.951 31.632V36.688C150.951 36.7947 151.005 36.848 151.111 36.848H154.951C155.058 36.848 155.143 36.8907 155.207 36.976C155.293 37.04 155.335 37.1253 155.335 37.232V40.336C155.335 40.4427 155.293 40.5387 155.207 40.624C155.143 40.688 155.058 40.72 154.951 40.72H151.111C151.005 40.72 150.951 40.7733 150.951 40.88V45.968C150.951 46.0747 151.005 46.128 151.111 46.128H157.799C157.906 46.128 157.991 46.1707 158.055 46.256C158.141 46.32 158.183 46.4053 158.183 46.512V49.616C158.183 49.7227 158.141 49.8187 158.055 49.904C157.991 49.968 157.906 50 157.799 50H146.823C146.717 50 146.621 49.968 146.535 49.904C146.471 49.8187 146.439 49.7227 146.439 49.616V27.984C146.439 27.8773 146.471 27.792 146.535 27.728C146.621 27.6427 146.717 27.6 146.823 27.6H157.799C157.906 27.6 157.991 27.6427 158.055 27.728C158.141 27.792 158.183 27.8773 158.183 27.984V31.088ZM168.303 50C168.068 50 167.919 49.8933 167.855 49.68L165.391 40.848C165.348 40.7627 165.295 40.72 165.231 40.72H164.143C164.036 40.72 163.983 40.7733 163.983 40.88V49.616C163.983 49.7227 163.94 49.8187 163.855 49.904C163.791 49.968 163.705 50 163.599 50H159.855C159.748 50 159.652 49.968 159.567 49.904C159.503 49.8187 159.471 49.7227 159.471 49.616V27.984C159.471 27.8773 159.503 27.792 159.567 27.728C159.652 27.6427 159.748 27.6 159.855 27.6H166.319C167.492 27.6 168.537 27.888 169.455 28.464C170.372 29.0187 171.076 29.808 171.567 30.832C172.079 31.856 172.335 33.0293 172.335 34.352C172.335 35.6107 172.089 36.72 171.599 37.68C171.129 38.64 170.468 39.3867 169.615 39.92C169.572 39.9413 169.54 39.9733 169.519 40.016C169.497 40.0373 169.497 40.0693 169.519 40.112L172.463 49.552L172.495 49.68C172.495 49.8933 172.377 50 172.143 50H168.303ZM164.143 31.472C164.036 31.472 163.983 31.5253 163.983 31.632V37.104C163.983 37.2107 164.036 37.264 164.143 37.264H165.583C166.244 37.264 166.777 37.008 167.183 36.496C167.609 35.9627 167.823 35.2587 167.823 34.384C167.823 33.488 167.609 32.784 167.183 32.272C166.777 31.7387 166.244 31.472 165.583 31.472H164.143ZM185.245 31.088C185.245 31.1947 185.202 31.2907 185.117 31.376C185.053 31.44 184.968 31.472 184.861 31.472H178.205C178.098 31.472 178.045 31.5253 178.045 31.632V36.688C178.045 36.7947 178.098 36.848 178.205 36.848H182.013C182.12 36.848 182.205 36.8907 182.269 36.976C182.354 37.04 182.397 37.1253 182.397 37.232V40.336C182.397 40.4427 182.354 40.5387 182.269 40.624C182.205 40.688 182.12 40.72 182.013 40.72H178.205C178.098 40.72 178.045 40.7733 178.045 40.88V49.616C178.045 49.7227 178.002 49.8187 177.917 49.904C177.853 49.968 177.768 50 177.661 50H173.917C173.81 50 173.714 49.968 173.629 49.904C173.565 49.8187 173.533 49.7227 173.533 49.616V27.984C173.533 27.8773 173.565 27.792 173.629 27.728C173.714 27.6427 173.81 27.6 173.917 27.6H184.861C184.968 27.6 185.053 27.6427 185.117 27.728C185.202 27.792 185.245 27.8773 185.245 27.984V31.088ZM192.274 50.256C190.354 50.256 188.807 49.6587 187.634 48.464C186.482 47.248 185.906 45.6373 185.906 43.632V27.984C185.906 27.8773 185.938 27.792 186.002 27.728C186.087 27.6427 186.183 27.6 186.29 27.6H190.034C190.14 27.6 190.226 27.6427 190.29 27.728C190.375 27.792 190.418 27.8773 190.418 27.984V44.08C190.418 44.7627 190.588 45.3173 190.93 45.744C191.271 46.1707 191.719 46.384 192.274 46.384C192.828 46.384 193.266 46.1707 193.586 45.744C193.927 45.3173 194.098 44.7627 194.098 44.08V27.984C194.098 27.8773 194.13 27.792 194.194 27.728C194.279 27.6427 194.375 27.6 194.482 27.6H198.226C198.332 27.6 198.418 27.6427 198.482 27.728C198.567 27.792 198.61 27.8773 198.61 27.984V43.632C198.61 45.6373 198.023 47.248 196.85 48.464C195.698 49.6587 194.172 50.256 192.274 50.256ZM200.698 50C200.592 50 200.496 49.968 200.41 49.904C200.346 49.8187 200.314 49.7227 200.314 49.616V27.984C200.314 27.8773 200.346 27.792 200.41 27.728C200.496 27.6427 200.592 27.6 200.698 27.6H204.442C204.549 27.6 204.634 27.6427 204.698 27.728C204.784 27.792 204.826 27.8773 204.826 27.984V45.968C204.826 46.0747 204.88 46.128 204.986 46.128H211.706C211.813 46.128 211.898 46.1707 211.962 46.256C212.048 46.32 212.09 46.4053 212.09 46.512V49.616C212.09 49.7227 212.048 49.8187 211.962 49.904C211.898 49.968 211.813 50 211.706 50H200.698Z" fill="white"/>
</g>
<defs>
<filter id="filter0_d_6_11" x="0" y="0.394287" width="98" height="58.4514" filterUnits="userSpaceOnUse" color-interpolation-filters="sRGB">
<feFlood flood-opacity="0" result="BackgroundImageFix"/>
<feColorMatrix in="SourceAlpha" type="matrix" values="0 0 0 0 0 0 0 0 0 0 0 0 0 0 0 0 0 0 127 0" result="hardAlpha"/>
<feOffset dy="4"/>
<feGaussianBlur stdDeviation="2"/>
<feComposite in2="hardAlpha" operator="out"/>
<feColorMatrix type="matrix" values="0 0 0 0 0 0 0 0 0 0 0 0 0 0 0 0 0 0 0.25 0"/>
<feBlend mode="normal" in2="BackgroundImageFix" result="effect1_dropShadow_6_11"/>
<feBlend mode="normal" in="SourceGraphic" in2="effect1_dropShadow_6_11" result="shape"/>
</filter>
<filter id="filter1_d_6_11" x="93.376" y="27.344" width="122.714" height="30.912" filterUnits="userSpaceOnUse" color-interpolation-filters="sRGB">
<feFlood flood-opacity="0" result="BackgroundImageFix"/>
<feColorMatrix in="SourceAlpha" type="matrix" values="0 0 0 0 0 0 0 0 0 0 0 0 0 0 0 0 0 0 127 0" result="hardAlpha"/>
<feOffset dy="4"/>
<feGaussianBlur stdDeviation="2"/>
<feComposite in2="hardAlpha" operator="out"/>
<feColorMatrix type="matrix" values="0 0 0 0 0 0 0 0 0 0 0 0 0 0 0 0 0 0 0.25 0"/>
<feBlend mode="normal" in2="BackgroundImageFix" result="effect1_dropShadow_6_11"/>
<feBlend mode="normal" in="SourceGraphic" in2="effect1_dropShadow_6_11" result="shape"/>
</filter>
<linearGradient id="paint0_linear_6_11" x1="4" y1="55.5193" x2="73.6752" y2="5.91416" gradientUnits="userSpaceOnUse">
<stop stop-color="#330000"/>
<stop stop-color="#B00000"/>
<stop offset="0.229167" stop-color="#730000"/>
<stop offset="0.40625" stop-color="#930000"/>
<stop offset="0.580913" stop-color="#B50000"/>
<stop offset="0.802183" stop-color="#DE0202"/>
<stop offset="1" stop-color="#FF0000"/>
</linearGradient>
</defs>
</svg>
