<svg width="172" height="56" viewBox="0 0 172 56" fill="none" xmlns="http://www.w3.org/2000/svg">
<g filter="url(#filter0_d_190_2)">
<path d="M12.766 20.362C14.1593 20.362 15.4007 20.704 16.49 21.388C17.5793 22.072 18.4153 23.0347 18.998 24.276C19.606 25.492 19.91 26.8853 19.91 28.456C19.91 30.812 19.2767 32.6993 18.01 34.118C16.7433 35.5367 15.084 36.246 13.032 36.246H10.182C10.0553 36.246 9.992 36.3093 9.992 36.436V46.544C9.992 46.6707 9.94133 46.7847 9.84 46.886C9.764 46.962 9.66267 47 9.536 47H5.09C4.96333 47 4.84933 46.962 4.748 46.886C4.672 46.7847 4.634 46.6707 4.634 46.544V20.818C4.634 20.6913 4.672 20.59 4.748 20.514C4.84933 20.4127 4.96333 20.362 5.09 20.362H12.766ZM11.854 32.066C12.6647 32.066 13.3107 31.762 13.792 31.154C14.2987 30.5207 14.552 29.6593 14.552 28.57C14.552 27.4553 14.2987 26.5813 13.792 25.948C13.3107 25.3147 12.6647 24.998 11.854 24.998H10.182C10.0553 24.998 9.992 25.0613 9.992 25.188V31.876C9.992 32.0027 10.0553 32.066 10.182 32.066H11.854ZM69.938 47C69.6593 47 69.4947 46.8607 69.444 46.582L64.314 20.894L64.276 20.742C64.276 20.514 64.4153 20.4 64.694 20.4H69.33C69.634 20.4 69.7987 20.5393 69.824 20.818L71.99 34.498C72.0153 34.5993 72.0533 34.65 72.104 34.65C72.1547 34.65 72.1927 34.5993 72.218 34.498L74.27 20.818C74.2953 20.5393 74.46 20.4 74.764 20.4H78.602C78.906 20.4 79.0707 20.5393 79.096 20.818L81.338 34.498C81.3633 34.5993 81.4013 34.65 81.452 34.65C81.5027 34.65 81.5407 34.5993 81.566 34.498L83.504 20.818C83.5293 20.5393 83.694 20.4 83.998 20.4H88.482C88.8113 20.4 88.9507 20.5647 88.9 20.894L84.074 46.582C84.0487 46.8607 83.884 47 83.58 47H79.476C79.172 47 79.0073 46.8607 78.982 46.582L76.74 32.522C76.7147 32.4207 76.6767 32.37 76.626 32.37C76.5753 32.37 76.5373 32.4207 76.512 32.522L74.498 46.582C74.4727 46.8607 74.308 47 74.004 47H69.938ZM104.033 24.542C104.033 24.6687 103.983 24.7827 103.881 24.884C103.805 24.96 103.704 24.998 103.577 24.998H95.6352C95.5086 24.998 95.4452 25.0613 95.4452 25.188V31.192C95.4452 31.3187 95.5086 31.382 95.6352 31.382H100.195C100.322 31.382 100.423 31.4327 100.499 31.534C100.601 31.61 100.651 31.7113 100.651 31.838V35.524C100.651 35.6507 100.601 35.7647 100.499 35.866C100.423 35.942 100.322 35.98 100.195 35.98H95.6352C95.5086 35.98 95.4452 36.0433 95.4452 36.17V42.212C95.4452 42.3387 95.5086 42.402 95.6352 42.402H103.577C103.704 42.402 103.805 42.4527 103.881 42.554C103.983 42.63 104.033 42.7313 104.033 42.858V46.544C104.033 46.6707 103.983 46.7847 103.881 46.886C103.805 46.962 103.704 47 103.577 47H90.5432C90.4166 47 90.3026 46.962 90.2012 46.886C90.1252 46.7847 90.0872 46.6707 90.0872 46.544V20.856C90.0872 20.7293 90.1252 20.628 90.2012 20.552C90.3026 20.4507 90.4166 20.4 90.5432 20.4H103.577C103.704 20.4 103.805 20.4507 103.881 20.552C103.983 20.628 104.033 20.7293 104.033 20.856V24.542ZM115.937 47C115.659 47 115.481 46.8733 115.405 46.62L112.479 36.132C112.429 36.0307 112.365 35.98 112.289 35.98H110.997C110.871 35.98 110.807 36.0433 110.807 36.17V46.544C110.807 46.6707 110.757 46.7847 110.655 46.886C110.579 46.962 110.478 47 110.351 47H105.905C105.779 47 105.665 46.962 105.563 46.886C105.487 46.7847 105.449 46.6707 105.449 46.544V20.856C105.449 20.7293 105.487 20.628 105.563 20.552C105.665 20.4507 105.779 20.4 105.905 20.4H113.581C114.975 20.4 116.216 20.742 117.305 21.426C118.395 22.0847 119.231 23.022 119.813 24.238C120.421 25.454 120.725 26.8473 120.725 28.418C120.725 29.9127 120.434 31.23 119.851 32.37C119.294 33.51 118.509 34.3967 117.495 35.03C117.445 35.0553 117.407 35.0933 117.381 35.144C117.356 35.1693 117.356 35.2073 117.381 35.258L120.877 46.468L120.915 46.62C120.915 46.8733 120.776 47 120.497 47H115.937ZM110.997 24.998C110.871 24.998 110.807 25.0613 110.807 25.188V31.686C110.807 31.8127 110.871 31.876 110.997 31.876H112.707C113.493 31.876 114.126 31.572 114.607 30.964C115.114 30.3307 115.367 29.4947 115.367 28.456C115.367 27.392 115.114 26.556 114.607 25.948C114.126 25.3147 113.493 24.998 112.707 24.998H110.997ZM135.944 24.542C135.944 24.6687 135.893 24.7827 135.792 24.884C135.716 24.96 135.615 24.998 135.488 24.998H127.584C127.457 24.998 127.394 25.0613 127.394 25.188V31.192C127.394 31.3187 127.457 31.382 127.584 31.382H132.106C132.233 31.382 132.334 31.4327 132.41 31.534C132.511 31.61 132.562 31.7113 132.562 31.838V35.524C132.562 35.6507 132.511 35.7647 132.41 35.866C132.334 35.942 132.233 35.98 132.106 35.98H127.584C127.457 35.98 127.394 36.0433 127.394 36.17V46.544C127.394 46.6707 127.343 46.7847 127.242 46.886C127.166 46.962 127.065 47 126.938 47H122.492C122.365 47 122.251 46.962 122.15 46.886C122.074 46.7847 122.036 46.6707 122.036 46.544V20.856C122.036 20.7293 122.074 20.628 122.15 20.552C122.251 20.4507 122.365 20.4 122.492 20.4H135.488C135.615 20.4 135.716 20.4507 135.792 20.552C135.893 20.628 135.944 20.7293 135.944 20.856V24.542ZM144.178 47.304C141.898 47.304 140.062 46.5947 138.668 45.176C137.3 43.732 136.616 41.8193 136.616 39.438V20.856C136.616 20.7293 136.654 20.628 136.73 20.552C136.832 20.4507 136.946 20.4 137.072 20.4H141.518C141.645 20.4 141.746 20.4507 141.822 20.552C141.924 20.628 141.974 20.7293 141.974 20.856V39.97C141.974 40.7807 142.177 41.4393 142.582 41.946C142.988 42.4527 143.52 42.706 144.178 42.706C144.837 42.706 145.356 42.4527 145.736 41.946C146.142 41.4393 146.344 40.7807 146.344 39.97V20.856C146.344 20.7293 146.382 20.628 146.458 20.552C146.56 20.4507 146.674 20.4 146.8 20.4H151.246C151.373 20.4 151.474 20.4507 151.55 20.552C151.652 20.628 151.702 20.7293 151.702 20.856V39.438C151.702 41.8193 151.006 43.732 149.612 45.176C148.244 46.5947 146.433 47.304 144.178 47.304ZM154.07 47C153.943 47 153.829 46.962 153.728 46.886C153.652 46.7847 153.614 46.6707 153.614 46.544V20.856C153.614 20.7293 153.652 20.628 153.728 20.552C153.829 20.4507 153.943 20.4 154.07 20.4H158.516C158.642 20.4 158.744 20.4507 158.82 20.552C158.921 20.628 158.972 20.7293 158.972 20.856V42.212C158.972 42.3387 159.035 42.402 159.162 42.402H167.142C167.268 42.402 167.37 42.4527 167.446 42.554C167.547 42.63 167.598 42.7313 167.598 42.858V46.544C167.598 46.6707 167.547 46.7847 167.446 46.886C167.37 46.962 167.268 47 167.142 47H154.07Z" fill="white"/>
</g>
<path fill-rule="evenodd" clip-rule="evenodd" d="M57.0461 48.976L28.5692 48.93C21.0964 42.4057 20.1767 31.0644 24.9075 22.9536C24.281 18.5504 23.3727 12.1181 22.8554 8.16904C21.4298 -2.68944 63.2887 -2.99985 61.6734 8.90481C60.8169 15.2279 60.0869 19.9932 59.5926 23.08C64.2659 31.2024 63.4209 42.4977 57.0461 48.976ZM29.4544 11.2156C30.2189 13.3597 30.6558 15.3486 31.7135 16.0672C34.8828 14.2703 38.475 13.3534 42.1178 13.4115C45.647 13.3537 49.1333 14.1902 52.252 15.843C53.7063 15.4866 54.4019 14.245 55.2584 11.5145C57.5002 4.43841 27.1723 4.73732 29.4831 11.2156H29.4544Z" fill="#DE0000"/>
<path fill-rule="evenodd" clip-rule="evenodd" d="M47.8109 43.7966C47.8109 43.7966 51.0851 37.9038 52.5575 35.4163C52.2486 33.193 51.4269 31.072 50.1573 29.2209C49.1051 30.6227 47.2832 33.0531 46.6041 33.9775C45.6898 35.2213 47.6429 36.6399 48.5101 35.7423C49.1186 35.1137 49.7707 34.3607 49.7707 34.3607L50.3758 35.228L48.0227 37.5811L40.7517 33.0833L39.9684 33.4464L41.4777 36.26L40.8828 36.8248L38.2507 33.8868C38.3451 33.3161 38.4856 32.754 38.6708 32.206C42.8358 32.2362 43.377 30.4748 43.377 28.3906C42.9535 28.3906 38.57 28.2158 35.9816 28.1116L32.3309 34.1086L36.8489 41.8402L36.8186 47.0002C22.253 41.9915 24.8649 18.3631 42.382 18.3631C59.9495 18.3631 61.6101 42.3041 47.8714 47.0977L47.8109 43.7966ZM39.1717 22.8911L36.6438 27.0258L39.9886 27.0695L42.4459 23.6138C41.3866 23.2454 40.2877 23.0028 39.1717 22.8911ZM43.5417 24.0307L41.2357 27.2376L44.8259 27.3317L46.3554 25.5434C45.4745 24.9493 44.5378 24.4427 43.5586 24.0307H43.5417ZM47.2395 26.1619C46.2512 27.4628 44.0124 30.4311 43.293 31.5404C42.3585 32.9556 44.7116 34.6633 45.72 33.4733C46.3924 32.6833 48.5404 29.631 49.4615 28.3234C48.8021 27.5238 48.057 26.799 47.2395 26.1619Z" fill="white"/>
<defs>
<filter id="filter0_d_190_2" x="0.634003" y="20.362" width="170.964" height="34.942" filterUnits="userSpaceOnUse" color-interpolation-filters="sRGB">
<feFlood flood-opacity="0" result="BackgroundImageFix"/>
<feColorMatrix in="SourceAlpha" type="matrix" values="0 0 0 0 0 0 0 0 0 0 0 0 0 0 0 0 0 0 127 0" result="hardAlpha"/>
<feOffset dy="4"/>
<feGaussianBlur stdDeviation="2"/>
<feComposite in2="hardAlpha" operator="out"/>
<feColorMatrix type="matrix" values="0 0 0 0 0 0 0 0 0 0 0 0 0 0 0 0 0 0 0.25 0"/>
<feBlend mode="normal" in2="BackgroundImageFix" result="effect1_dropShadow_190_2"/>
<feBlend mode="normal" in="SourceGraphic" in2="effect1_dropShadow_190_2" result="shape"/>
</filter>
</defs>
</svg>
