<svg width="139" height="35" viewBox="0 0 139 35" fill="none" xmlns="http://www.w3.org/2000/svg">
<g filter="url(#filter0_d_5_10)">
<path d="M12.252 0.763999C13.572 0.763999 14.748 1.088 15.78 1.736C16.812 2.384 17.604 3.296 18.156 4.472C18.732 5.624 19.02 6.944 19.02 8.432C19.02 10.664 18.42 12.452 17.22 13.796C16.02 15.14 14.448 15.812 12.504 15.812H9.804C9.684 15.812 9.624 15.872 9.624 15.992V25.568C9.624 25.688 9.576 25.796 9.48 25.892C9.408 25.964 9.312 26 9.192 26H4.98C4.86 26 4.752 25.964 4.656 25.892C4.584 25.796 4.548 25.688 4.548 25.568V1.196C4.548 1.076 4.584 0.98 4.656 0.907999C4.752 0.811999 4.86 0.763999 4.98 0.763999H12.252ZM11.388 11.852C12.156 11.852 12.768 11.564 13.224 10.988C13.704 10.388 13.944 9.572 13.944 8.54C13.944 7.484 13.704 6.656 13.224 6.056C12.768 5.456 12.156 5.156 11.388 5.156H9.804C9.684 5.156 9.624 5.216 9.624 5.336V11.672C9.624 11.792 9.684 11.852 9.804 11.852H11.388ZM27.2304 26.288C25.0224 26.288 23.2584 25.64 21.9384 24.344C20.6184 23.048 19.9584 21.32 19.9584 19.16V7.64C19.9584 5.48 20.6184 3.752 21.9384 2.456C23.2584 1.16 25.0224 0.512 27.2304 0.512C29.4384 0.512 31.2024 1.16 32.5224 2.456C33.8664 3.752 34.5384 5.48 34.5384 7.64V19.16C34.5384 21.32 33.8664 23.048 32.5224 24.344C31.2024 25.64 29.4384 26.288 27.2304 26.288ZM27.2304 21.932C27.9024 21.932 28.4424 21.704 28.8504 21.248C29.2584 20.768 29.4624 20.144 29.4624 19.376V7.424C29.4624 6.656 29.2584 6.044 28.8504 5.588C28.4424 5.108 27.9024 4.868 27.2304 4.868C26.5584 4.868 26.0184 5.108 25.6104 5.588C25.2264 6.044 25.0344 6.656 25.0344 7.424V19.376C25.0344 20.144 25.2264 20.768 25.6104 21.248C26.0184 21.704 26.5584 21.932 27.2304 21.932ZM40.7988 26C40.5348 26 40.3788 25.868 40.3308 25.604L35.4708 1.268L35.4348 1.124C35.4348 0.907998 35.5668 0.799998 35.8308 0.799998H40.2228C40.5108 0.799998 40.6668 0.931999 40.6908 1.196L42.7428 14.156C42.7668 14.252 42.8028 14.3 42.8508 14.3C42.8988 14.3 42.9348 14.252 42.9588 14.156L44.9028 1.196C44.9268 0.931999 45.0828 0.799998 45.3708 0.799998H49.0068C49.2948 0.799998 49.4508 0.931999 49.4748 1.196L51.5988 14.156C51.6228 14.252 51.6588 14.3 51.7068 14.3C51.7548 14.3 51.7908 14.252 51.8148 14.156L53.6508 1.196C53.6748 0.931999 53.8308 0.799998 54.1188 0.799998H58.3668C58.6788 0.799998 58.8108 0.955998 58.7628 1.268L54.1908 25.604C54.1668 25.868 54.0108 26 53.7228 26H49.8348C49.5468 26 49.3908 25.868 49.3668 25.604L47.2428 12.284C47.2188 12.188 47.1828 12.14 47.1348 12.14C47.0868 12.14 47.0508 12.188 47.0268 12.284L45.1188 25.604C45.0948 25.868 44.9388 26 44.6508 26H40.7988ZM73.3312 4.724C73.3312 4.844 73.2832 4.952 73.1872 5.048C73.1152 5.12 73.0192 5.156 72.8992 5.156H65.3752C65.2552 5.156 65.1952 5.216 65.1952 5.336V11.024C65.1952 11.144 65.2552 11.204 65.3752 11.204H69.6952C69.8152 11.204 69.9112 11.252 69.9832 11.348C70.0792 11.42 70.1272 11.516 70.1272 11.636V15.128C70.1272 15.248 70.0792 15.356 69.9832 15.452C69.9112 15.524 69.8152 15.56 69.6952 15.56H65.3752C65.2552 15.56 65.1952 15.62 65.1952 15.74V21.464C65.1952 21.584 65.2552 21.644 65.3752 21.644H72.8992C73.0192 21.644 73.1152 21.692 73.1872 21.788C73.2832 21.86 73.3312 21.956 73.3312 22.076V25.568C73.3312 25.688 73.2832 25.796 73.1872 25.892C73.1152 25.964 73.0192 26 72.8992 26H60.5512C60.4312 26 60.3232 25.964 60.2272 25.892C60.1552 25.796 60.1192 25.688 60.1192 25.568V1.232C60.1192 1.112 60.1552 1.016 60.2272 0.943999C60.3232 0.847998 60.4312 0.799998 60.5512 0.799998H72.8992C73.0192 0.799998 73.1152 0.847998 73.1872 0.943999C73.2832 1.016 73.3312 1.112 73.3312 1.232V4.724ZM84.8403 26C84.5763 26 84.4083 25.88 84.3363 25.64L81.5643 15.704C81.5163 15.608 81.4563 15.56 81.3843 15.56H80.1603C80.0403 15.56 79.9803 15.62 79.9803 15.74V25.568C79.9803 25.688 79.9323 25.796 79.8363 25.892C79.7643 25.964 79.6683 26 79.5483 26H75.3363C75.2163 26 75.1083 25.964 75.0123 25.892C74.9403 25.796 74.9043 25.688 74.9043 25.568V1.232C74.9043 1.112 74.9403 1.016 75.0123 0.943999C75.1083 0.847998 75.2163 0.799998 75.3363 0.799998H82.6083C83.9283 0.799998 85.1043 1.124 86.1363 1.772C87.1683 2.396 87.9603 3.284 88.5123 4.436C89.0883 5.588 89.3763 6.908 89.3763 8.396C89.3763 9.812 89.1003 11.06 88.5483 12.14C88.0203 13.22 87.2763 14.06 86.3163 14.66C86.2683 14.684 86.2323 14.72 86.2083 14.768C86.1843 14.792 86.1843 14.828 86.2083 14.876L89.5203 25.496L89.5563 25.64C89.5563 25.88 89.4243 26 89.1603 26H84.8403ZM80.1603 5.156C80.0403 5.156 79.9803 5.216 79.9803 5.336V11.492C79.9803 11.612 80.0403 11.672 80.1603 11.672H81.7803C82.5243 11.672 83.1243 11.384 83.5803 10.808C84.0603 10.208 84.3003 9.416 84.3003 8.432C84.3003 7.424 84.0603 6.632 83.5803 6.056C83.1243 5.456 82.5243 5.156 81.7803 5.156H80.1603ZM104.026 4.724C104.026 4.844 103.978 4.952 103.882 5.048C103.81 5.12 103.714 5.156 103.594 5.156H96.1056C95.9856 5.156 95.9256 5.216 95.9256 5.336V11.024C95.9256 11.144 95.9856 11.204 96.1056 11.204H100.39C100.51 11.204 100.606 11.252 100.678 11.348C100.774 11.42 100.822 11.516 100.822 11.636V15.128C100.822 15.248 100.774 15.356 100.678 15.452C100.606 15.524 100.51 15.56 100.39 15.56H96.1056C95.9856 15.56 95.9256 15.62 95.9256 15.74V25.568C95.9256 25.688 95.8776 25.796 95.7816 25.892C95.7096 25.964 95.6136 26 95.4936 26H91.2816C91.1616 26 91.0536 25.964 90.9576 25.892C90.8856 25.796 90.8496 25.688 90.8496 25.568V1.232C90.8496 1.112 90.8856 1.016 90.9576 0.943999C91.0536 0.847998 91.1616 0.799998 91.2816 0.799998H103.594C103.714 0.799998 103.81 0.847998 103.882 0.943999C103.978 1.016 104.026 1.112 104.026 1.232V4.724ZM112.058 26.288C109.898 26.288 108.158 25.616 106.838 24.272C105.542 22.904 104.894 21.092 104.894 18.836V1.232C104.894 1.112 104.93 1.016 105.002 0.943999C105.098 0.847998 105.206 0.799998 105.326 0.799998H109.538C109.658 0.799998 109.754 0.847998 109.826 0.943999C109.922 1.016 109.97 1.112 109.97 1.232V19.34C109.97 20.108 110.162 20.732 110.546 21.212C110.93 21.692 111.434 21.932 112.058 21.932C112.682 21.932 113.174 21.692 113.534 21.212C113.918 20.732 114.11 20.108 114.11 19.34V1.232C114.11 1.112 114.146 1.016 114.218 0.943999C114.314 0.847998 114.422 0.799998 114.542 0.799998H118.754C118.874 0.799998 118.97 0.847998 119.042 0.943999C119.138 1.016 119.186 1.112 119.186 1.232V18.836C119.186 21.092 118.526 22.904 117.206 24.272C115.91 25.616 114.194 26.288 112.058 26.288ZM121.661 26C121.541 26 121.433 25.964 121.337 25.892C121.265 25.796 121.229 25.688 121.229 25.568V1.232C121.229 1.112 121.265 1.016 121.337 0.943999C121.433 0.847998 121.541 0.799998 121.661 0.799998H125.873C125.993 0.799998 126.089 0.847998 126.161 0.943999C126.257 1.016 126.305 1.112 126.305 1.232V21.464C126.305 21.584 126.365 21.644 126.485 21.644H134.045C134.165 21.644 134.261 21.692 134.333 21.788C134.429 21.86 134.477 21.956 134.477 22.076V25.568C134.477 25.688 134.429 25.796 134.333 25.892C134.261 25.964 134.165 26 134.045 26H121.661Z" fill="#F5F5F5"/>
</g>
<defs>
<filter id="filter0_d_5_10" x="0.547974" y="0.511993" width="137.929" height="33.776" filterUnits="userSpaceOnUse" color-interpolation-filters="sRGB">
<feFlood flood-opacity="0" result="BackgroundImageFix"/>
<feColorMatrix in="SourceAlpha" type="matrix" values="0 0 0 0 0 0 0 0 0 0 0 0 0 0 0 0 0 0 127 0" result="hardAlpha"/>
<feOffset dy="4"/>
<feGaussianBlur stdDeviation="2"/>
<feComposite in2="hardAlpha" operator="out"/>
<feColorMatrix type="matrix" values="0 0 0 0 0 0 0 0 0 0 0 0 0 0 0 0 0 0 0.25 0"/>
<feBlend mode="normal" in2="BackgroundImageFix" result="effect1_dropShadow_5_10"/>
<feBlend mode="normal" in="SourceGraphic" in2="effect1_dropShadow_5_10" result="shape"/>
</filter>
</defs>
</svg>
